<?xml version="1.0" ?><!-- Uploaded to: SVG Repo, www.svgrepo.com, Generator: SVG Repo Mixer Tools -->
<svg width="800px" height="800px" viewBox="0 0 32 32" id="object" xmlns="http://www.w3.org/2000/svg"><defs><style>.cls-1{fill:#eef5fd;}.cls-2{fill:#6d6daa;}.cls-3{fill:#91e085;}.cls-4{fill:#ff9797;}</style></defs><title/><path class="cls-1" d="M14,2H2V29H14a2,2,0,0,1,1.72,1H16V4A2,2,0,0,0,14,2Z"/><path class="cls-2" d="M16,31h-.28a1,1,0,0,1-.86-.5A1,1,0,0,0,14,30H2a1,1,0,0,1-1-1V2A1,1,0,0,1,2,1H14a3,3,0,0,1,3,3V30A1,1,0,0,1,16,31ZM3,28H14a3.09,3.09,0,0,1,1,.17V4a1,1,0,0,0-1-1H3Z"/><path class="cls-2" d="M13,17H5a1,1,0,0,1,0-2h8a1,1,0,0,1,0,2Z"/><path class="cls-2" d="M13,21.5H5a1,1,0,0,1,0-2h8a1,1,0,0,1,0,2Z"/><path class="cls-2" d="M13,26H5a1,1,0,0,1,0-2h8a1,1,0,0,1,0,2Z"/><circle class="cls-3" cx="9" cy="9" r="3"/><path class="cls-2" d="M9,13a4,4,0,1,1,4-4A4,4,0,0,1,9,13ZM9,7a2,2,0,1,0,2,2A2,2,0,0,0,9,7Z"/><path class="cls-1" d="M18,2H30V29H18a2,2,0,0,0-1.72,1H16V4A2,2,0,0,1,18,2Z"/><path class="cls-2" d="M16.28,31H16a1,1,0,0,1-1-1V4a3,3,0,0,1,3-3H30a1,1,0,0,1,1,1V29a1,1,0,0,1-1,1H18a1,1,0,0,0-.86.5A1,1,0,0,1,16.28,31ZM18,3a1,1,0,0,0-1,1V28.17A3.09,3.09,0,0,1,18,28H29V3Z"/><rect class="cls-4" height="6" width="6" x="20" y="6"/><path class="cls-2" d="M26,13H20a1,1,0,0,1-1-1V6a1,1,0,0,1,1-1h6a1,1,0,0,1,1,1v6A1,1,0,0,1,26,13Zm-5-2h4V7H21Z"/><path class="cls-2" d="M27,17H19a1,1,0,0,1,0-2h8a1,1,0,0,1,0,2Z"/><path class="cls-2" d="M27,21.5H19a1,1,0,0,1,0-2h8a1,1,0,0,1,0,2Z"/><path class="cls-2" d="M27,26H19a1,1,0,0,1,0-2h8a1,1,0,0,1,0,2Z"/></svg>